<svg width="100%" height="100%" xmlns="http://www.w3.org/2000/svg" xmlns:xlink="http://www.w3.org/1999/xlink" xml:space="preserve" version="1.2" viewBox="0 0 1631 512.719">
  <defs>
    <clipPath id="c">
      <path d="M396.855 462.508c-14.363 10.605-36.507 35.164-36.507 35.164l-28.102 29.336 7.488 7.531s23.032-22.64 28.801-28.414c5.77-5.77 15.707-16.305 31.137-27.11 10.738-7.515 31.36-16.663 44.996-1.792 10.3 11.23 5.418 24.097 5.418 24.097l11.023 9.903s18.121-25.594 5.79-45.024c-8.192-12.91-22.79-17.558-34.184-18.12a26.642 26.642 0 0 0-1.387-.032c-11.305 0-23.828 6.601-34.473 14.46"/>
    </clipPath>
    <clipPath id="e">
      <path d="M215 432h247v111H215Zm0 0"/>
    </clipPath>
    <clipPath id="f">
      <path d="M331.492 522.77c37.715 19.46 63.219 23.914 94.184 15.464 22.367-6.105 35.433-27.011 35.433-27.011l-11.023-9.903s-8.54 28.16-45.125 24.266c-19.832-2.11-35.621-7.648-64.34-28.316-32.879-23.66-54.059-58.329-54.059-58.329s-7.636 4.852-24.218 4.305c-18.219-.601-46.403-10.262-46.403-10.262s68.723 65.618 115.551 89.786"/>
    </clipPath>
    <clipPath id="h">
      <path d="M211 519h246v110H211Zm0 0"/>
    </clipPath>
    <clipPath id="i">
      <path d="M246.438 523.676c-22.368 6.101-35.43 27.008-35.43 27.008l11.02 9.902s8.542-28.16 45.128-24.266c19.832 2.11 35.617 7.649 64.34 28.317 32.875 23.66 54.059 58.328 54.059 58.328s7.636-4.852 24.218-4.305c18.22.602 46.403 10.262 46.403 10.262S387.453 563.3 340.62 539.137c-25.676-13.25-45.695-19.543-65.633-19.543-9.343 0-18.668 1.383-28.55 4.082"/>
    </clipPath>
    <clipPath id="k">
      <path d="M200 527h140v87H200Zm0 0"/>
    </clipPath>
    <clipPath id="l">
      <path d="M303.578 555.777c-5.77 5.774-15.703 16.313-31.137 27.114-10.734 7.515-31.355 16.664-44.996 1.793-10.297-11.23-5.418-24.098-5.418-24.098l-11.02-9.902s-18.12 25.593-5.792 45.023c8.191 12.906 22.793 17.559 34.187 18.121 11.664.57 24.778-6.25 35.86-14.43 14.36-10.601 36.504-35.164 36.504-35.164l27.968-29.695-7.488-7.531s-22.894 23-28.668 28.77"/>
    </clipPath>
    <linearGradient id="d" x1="-.669" x2="1.36" y1="0" y2="0" gradientTransform="rotate(45 -385.414 697.61) scale(81.368)" gradientUnits="userSpaceOnUse">
      <stop offset="0" stop-color="#00adef"/>
      <stop offset=".336" stop-color="#01acee"/>
      <stop offset=".348" stop-color="#02abed"/>
      <stop offset=".355" stop-color="#03aaed"/>
      <stop offset=".363" stop-color="#04aaec"/>
      <stop offset=".367" stop-color="#05a9ec"/>
      <stop offset=".371" stop-color="#05a9eb"/>
      <stop offset=".379" stop-color="#06a8eb"/>
      <stop offset=".383" stop-color="#07a8ea"/>
      <stop offset=".387" stop-color="#07a7ea"/>
      <stop offset=".391" stop-color="#08a7ea"/>
      <stop offset=".398" stop-color="#08a6e9"/>
      <stop offset=".406" stop-color="#09a5e8"/>
      <stop offset=".41" stop-color="#0aa5e8"/>
      <stop offset=".414" stop-color="#0aa4e7"/>
      <stop offset=".418" stop-color="#0ba4e7"/>
      <stop offset=".422" stop-color="#0ba3e7"/>
      <stop offset=".426" stop-color="#0ca3e6"/>
      <stop offset=".43" stop-color="#0ca2e6"/>
      <stop offset=".434" stop-color="#0da2e6"/>
      <stop offset=".438" stop-color="#0da2e5"/>
      <stop offset=".445" stop-color="#0ea1e5"/>
      <stop offset=".449" stop-color="#0fa0e4"/>
      <stop offset=".453" stop-color="#0fa0e4"/>
      <stop offset=".465" stop-color="#109fe3"/>
      <stop offset=".473" stop-color="#119ee2"/>
      <stop offset=".477" stop-color="#129de2"/>
      <stop offset=".48" stop-color="#129de1"/>
      <stop offset=".488" stop-color="#139ce1"/>
      <stop offset=".492" stop-color="#149ce0"/>
      <stop offset=".496" stop-color="#149be0"/>
      <stop offset=".5" stop-color="#159be0"/>
      <stop offset=".504" stop-color="#159adf"/>
      <stop offset=".508" stop-color="#169adf"/>
      <stop offset=".516" stop-color="#1699de"/>
      <stop offset=".52" stop-color="#1798de"/>
      <stop offset=".523" stop-color="#1798dd"/>
      <stop offset=".531" stop-color="#1897dd"/>
      <stop offset=".535" stop-color="#1997dc"/>
      <stop offset=".539" stop-color="#1996dc"/>
      <stop offset=".543" stop-color="#1a96dc"/>
      <stop offset=".547" stop-color="#1a95db"/>
      <stop offset=".551" stop-color="#1a95db"/>
      <stop offset=".555" stop-color="#1b94db"/>
      <stop offset=".559" stop-color="#1b94da"/>
      <stop offset=".563" stop-color="#1c93da"/>
      <stop offset=".566" stop-color="#1c93d9"/>
      <stop offset=".57" stop-color="#1d92d9"/>
      <stop offset=".574" stop-color="#1d92d9"/>
      <stop offset=".578" stop-color="#1e91d8"/>
      <stop offset=".582" stop-color="#1e91d8"/>
      <stop offset=".586" stop-color="#1f90d8"/>
      <stop offset=".59" stop-color="#1f90d7"/>
      <stop offset=".594" stop-color="#1f90d7"/>
      <stop offset=".598" stop-color="#208fd7"/>
      <stop offset=".602" stop-color="#208fd6"/>
      <stop offset=".605" stop-color="#218ed6"/>
      <stop offset=".609" stop-color="#218ed5"/>
      <stop offset=".613" stop-color="#228dd5"/>
      <stop offset=".617" stop-color="#228dd5"/>
      <stop offset=".621" stop-color="#238cd4"/>
      <stop offset=".625" stop-color="#238cd4"/>
      <stop offset=".629" stop-color="#238bd4"/>
      <stop offset=".633" stop-color="#248bd3"/>
      <stop offset=".637" stop-color="#248ad3"/>
      <stop offset=".641" stop-color="#258ad3"/>
      <stop offset=".645" stop-color="#2589d2"/>
      <stop offset=".648" stop-color="#2689d2"/>
      <stop offset=".652" stop-color="#2688d1"/>
      <stop offset=".656" stop-color="#2688d1"/>
      <stop offset=".66" stop-color="#2787d1"/>
      <stop offset=".664" stop-color="#2787d0"/>
      <stop offset=".668" stop-color="#2886d0"/>
      <stop offset=".672" stop-color="#2886d0"/>
      <stop offset=".676" stop-color="#2985cf"/>
      <stop offset=".68" stop-color="#2985cf"/>
      <stop offset=".684" stop-color="#2984ce"/>
      <stop offset=".688" stop-color="#2a84ce"/>
      <stop offset=".691" stop-color="#2a83ce"/>
      <stop offset=".695" stop-color="#2b83cd"/>
      <stop offset=".699" stop-color="#2b82cd"/>
      <stop offset=".703" stop-color="#2c82cd"/>
      <stop offset=".707" stop-color="#2c81cc"/>
      <stop offset=".711" stop-color="#2c81cc"/>
      <stop offset=".715" stop-color="#2d80cc"/>
      <stop offset=".719" stop-color="#2d80cb"/>
      <stop offset=".723" stop-color="#2e7fcb"/>
      <stop offset=".727" stop-color="#2e7fca"/>
      <stop offset=".73" stop-color="#2f7eca"/>
      <stop offset=".734" stop-color="#2f7eca"/>
      <stop offset=".738" stop-color="#2f7dc9"/>
      <stop offset=".742" stop-color="#307dc9"/>
      <stop offset=".746" stop-color="#307cc9"/>
      <stop offset=".75" stop-color="#317bc8"/>
      <stop offset=".754" stop-color="#317bc8"/>
      <stop offset=".758" stop-color="#327ac7"/>
      <stop offset=".762" stop-color="#327ac7"/>
      <stop offset=".766" stop-color="#3279c7"/>
      <stop offset=".77" stop-color="#3379c6"/>
      <stop offset=".773" stop-color="#3378c6"/>
      <stop offset=".777" stop-color="#3478c6"/>
      <stop offset=".781" stop-color="#3477c5"/>
      <stop offset=".785" stop-color="#3477c5"/>
      <stop offset=".789" stop-color="#3576c4"/>
      <stop offset=".793" stop-color="#3576c4"/>
      <stop offset=".797" stop-color="#3675c4"/>
      <stop offset=".801" stop-color="#3675c3"/>
      <stop offset=".805" stop-color="#3774c3"/>
      <stop offset=".809" stop-color="#3773c3"/>
      <stop offset=".813" stop-color="#3773c2"/>
      <stop offset=".816" stop-color="#3872c2"/>
      <stop offset=".82" stop-color="#3872c1"/>
      <stop offset=".828" stop-color="#3872c1"/>
      <stop offset=".844" stop-color="#3871c1"/>
      <stop offset=".875" stop-color="#3871c1"/>
      <stop offset="1" stop-color="#3871c1"/>
    </linearGradient>
    <linearGradient id="g" x1="0" x2="1.103" y1="0" y2="0" gradientTransform="rotate(45 -343.42 506.734) scale(230.02)" gradientUnits="userSpaceOnUse">
      <stop offset="0" stop-color="#00adef"/>
      <stop offset=".004" stop-color="#00adef"/>
      <stop offset=".008" stop-color="#01adef"/>
      <stop offset=".012" stop-color="#01acee"/>
      <stop offset=".02" stop-color="#01acee"/>
      <stop offset=".023" stop-color="#02acee"/>
      <stop offset=".027" stop-color="#02abee"/>
      <stop offset=".031" stop-color="#02abed"/>
      <stop offset=".035" stop-color="#02abed"/>
      <stop offset=".039" stop-color="#03abed"/>
      <stop offset=".043" stop-color="#03abed"/>
      <stop offset=".047" stop-color="#03aaed"/>
      <stop offset=".051" stop-color="#03aaed"/>
      <stop offset=".063" stop-color="#04aaec"/>
      <stop offset=".066" stop-color="#04a9ec"/>
      <stop offset=".07" stop-color="#05a9ec"/>
      <stop offset=".074" stop-color="#05a9eb"/>
      <stop offset=".078" stop-color="#05a9eb"/>
      <stop offset=".082" stop-color="#06a8eb"/>
      <stop offset=".09" stop-color="#06a8eb"/>
      <stop offset=".094" stop-color="#06a8ea"/>
      <stop offset=".098" stop-color="#07a8ea"/>
      <stop offset=".102" stop-color="#07a7ea"/>
      <stop offset=".109" stop-color="#07a7ea"/>
      <stop offset=".113" stop-color="#08a7e9"/>
      <stop offset=".117" stop-color="#08a6e9"/>
      <stop offset=".125" stop-color="#08a6e9"/>
      <stop offset=".129" stop-color="#09a6e9"/>
      <stop offset=".133" stop-color="#09a5e9"/>
      <stop offset=".137" stop-color="#09a5e8"/>
      <stop offset=".141" stop-color="#09a5e8"/>
      <stop offset=".145" stop-color="#0aa5e8"/>
      <stop offset=".148" stop-color="#0aa5e8"/>
      <stop offset=".152" stop-color="#0aa4e8"/>
      <stop offset=".156" stop-color="#0aa4e7"/>
      <stop offset=".16" stop-color="#0ba4e7"/>
      <stop offset=".164" stop-color="#0ba4e7"/>
      <stop offset=".168" stop-color="#0ba3e7"/>
      <stop offset=".172" stop-color="#0ba3e7"/>
      <stop offset=".176" stop-color="#0ca3e6"/>
      <stop offset=".184" stop-color="#0ca3e6"/>
      <stop offset=".188" stop-color="#0ca2e6"/>
      <stop offset=".191" stop-color="#0da2e6"/>
      <stop offset=".195" stop-color="#0da2e5"/>
      <stop offset=".199" stop-color="#0da2e5"/>
      <stop offset=".203" stop-color="#0da1e5"/>
      <stop offset=".207" stop-color="#0ea1e5"/>
      <stop offset=".211" stop-color="#0ea1e5"/>
      <stop offset=".215" stop-color="#0ea1e4"/>
      <stop offset=".219" stop-color="#0ea0e4"/>
      <stop offset=".223" stop-color="#0fa0e4"/>
      <stop offset=".227" stop-color="#0fa0e4"/>
      <stop offset=".23" stop-color="#0fa0e4"/>
      <stop offset=".234" stop-color="#109fe3"/>
      <stop offset=".246" stop-color="#109fe3"/>
      <stop offset=".25" stop-color="#119fe3"/>
      <stop offset=".254" stop-color="#119ee3"/>
      <stop offset=".258" stop-color="#119ee2"/>
      <stop offset=".262" stop-color="#119ee2"/>
      <stop offset=".266" stop-color="#129ee2"/>
      <stop offset=".27" stop-color="#129de2"/>
      <stop offset=".273" stop-color="#129de2"/>
      <stop offset=".277" stop-color="#129de1"/>
      <stop offset=".281" stop-color="#139de1"/>
      <stop offset=".285" stop-color="#139ce1"/>
      <stop offset=".293" stop-color="#139ce1"/>
      <stop offset=".297" stop-color="#149ce0"/>
      <stop offset=".301" stop-color="#149be0"/>
      <stop offset=".309" stop-color="#149be0"/>
      <stop offset=".313" stop-color="#159be0"/>
      <stop offset=".316" stop-color="#159adf"/>
      <stop offset=".32" stop-color="#159adf"/>
      <stop offset=".324" stop-color="#159adf"/>
      <stop offset=".328" stop-color="#169adf"/>
      <stop offset=".332" stop-color="#1699df"/>
      <stop offset=".336" stop-color="#1699de"/>
      <stop offset=".34" stop-color="#1699de"/>
      <stop offset=".344" stop-color="#1799de"/>
      <stop offset=".348" stop-color="#1798de"/>
      <stop offset=".352" stop-color="#1798de"/>
      <stop offset=".355" stop-color="#1798dd"/>
      <stop offset=".359" stop-color="#1898dd"/>
      <stop offset=".363" stop-color="#1897dd"/>
      <stop offset=".371" stop-color="#1897dd"/>
      <stop offset=".375" stop-color="#1997dc"/>
      <stop offset=".379" stop-color="#1997dc"/>
      <stop offset=".383" stop-color="#1996dc"/>
      <stop offset=".391" stop-color="#1996dc"/>
      <stop offset=".395" stop-color="#1a96db"/>
      <stop offset=".398" stop-color="#1a95db"/>
      <stop offset=".406" stop-color="#1a95db"/>
      <stop offset=".41" stop-color="#1b94db"/>
      <stop offset=".414" stop-color="#1b94db"/>
      <stop offset=".418" stop-color="#1b94da"/>
      <stop offset=".422" stop-color="#1b94da"/>
      <stop offset=".426" stop-color="#1c93da"/>
      <stop offset=".43" stop-color="#1c93da"/>
      <stop offset=".434" stop-color="#1c93da"/>
      <stop offset=".438" stop-color="#1c93d9"/>
      <stop offset=".441" stop-color="#1d92d9"/>
      <stop offset=".453" stop-color="#1d92d9"/>
      <stop offset=".457" stop-color="#1e91d8"/>
      <stop offset=".469" stop-color="#1e91d8"/>
      <stop offset=".473" stop-color="#1f90d8"/>
      <stop offset=".477" stop-color="#1f90d7"/>
      <stop offset=".48" stop-color="#1f90d7"/>
      <stop offset=".484" stop-color="#1f90d7"/>
      <stop offset=".488" stop-color="#208fd7"/>
      <stop offset=".492" stop-color="#208fd7"/>
      <stop offset=".496" stop-color="#208fd6"/>
      <stop offset=".5" stop-color="#208fd6"/>
      <stop offset=".504" stop-color="#218ed6"/>
      <stop offset=".512" stop-color="#218ed6"/>
      <stop offset=".516" stop-color="#218ed5"/>
      <stop offset=".52" stop-color="#228dd5"/>
      <stop offset=".523" stop-color="#228dd5"/>
      <stop offset=".527" stop-color="#228dd5"/>
      <stop offset=".531" stop-color="#228cd5"/>
      <stop offset=".535" stop-color="#228cd4"/>
      <stop offset=".539" stop-color="#238cd4"/>
      <stop offset=".543" stop-color="#238cd4"/>
      <stop offset=".547" stop-color="#238bd4"/>
      <stop offset=".551" stop-color="#238bd4"/>
      <stop offset=".555" stop-color="#248bd3"/>
      <stop offset=".559" stop-color="#248bd3"/>
      <stop offset=".563" stop-color="#248ad3"/>
      <stop offset=".566" stop-color="#248ad3"/>
      <stop offset=".57" stop-color="#258ad3"/>
      <stop offset=".574" stop-color="#258ad2"/>
      <stop offset=".578" stop-color="#2589d2"/>
      <stop offset=".582" stop-color="#2589d2"/>
      <stop offset=".586" stop-color="#2689d2"/>
      <stop offset=".59" stop-color="#2688d2"/>
      <stop offset=".594" stop-color="#2688d1"/>
      <stop offset=".598" stop-color="#2688d1"/>
      <stop offset=".602" stop-color="#2788d1"/>
      <stop offset=".605" stop-color="#2787d1"/>
      <stop offset=".609" stop-color="#2787d1"/>
      <stop offset=".613" stop-color="#2787d0"/>
      <stop offset=".617" stop-color="#2787d0"/>
      <stop offset=".621" stop-color="#2886d0"/>
      <stop offset=".629" stop-color="#2886d0"/>
      <stop offset=".633" stop-color="#2886cf"/>
      <stop offset=".645" stop-color="#2985cf"/>
      <stop offset=".648" stop-color="#2984cf"/>
      <stop offset=".652" stop-color="#2a84ce"/>
      <stop offset=".656" stop-color="#2a84ce"/>
      <stop offset=".66" stop-color="#2a84ce"/>
      <stop offset=".664" stop-color="#2a83ce"/>
      <stop offset=".668" stop-color="#2a83ce"/>
      <stop offset=".672" stop-color="#2b83cd"/>
      <stop offset=".676" stop-color="#2b82cd"/>
      <stop offset=".68" stop-color="#2b82cd"/>
      <stop offset=".684" stop-color="#2b82cd"/>
      <stop offset=".688" stop-color="#2c82cd"/>
      <stop offset=".691" stop-color="#2c81cc"/>
      <stop offset=".699" stop-color="#2c81cc"/>
      <stop offset=".703" stop-color="#2d81cc"/>
      <stop offset=".707" stop-color="#2d80cc"/>
      <stop offset=".711" stop-color="#2d80cb"/>
      <stop offset=".715" stop-color="#2d80cb"/>
      <stop offset=".719" stop-color="#2e7fcb"/>
      <stop offset=".723" stop-color="#2e7fcb"/>
      <stop offset=".727" stop-color="#2e7fcb"/>
      <stop offset=".73" stop-color="#2e7fca"/>
      <stop offset=".734" stop-color="#2e7eca"/>
      <stop offset=".738" stop-color="#2f7eca"/>
      <stop offset=".742" stop-color="#2f7eca"/>
      <stop offset=".746" stop-color="#2f7dca"/>
      <stop offset=".75" stop-color="#2f7dc9"/>
      <stop offset=".754" stop-color="#307dc9"/>
      <stop offset=".758" stop-color="#307dc9"/>
      <stop offset=".762" stop-color="#307cc9"/>
      <stop offset=".766" stop-color="#307cc9"/>
      <stop offset=".77" stop-color="#307cc8"/>
      <stop offset=".773" stop-color="#317bc8"/>
      <stop offset=".785" stop-color="#317bc8"/>
      <stop offset=".789" stop-color="#327ac7"/>
      <stop offset=".793" stop-color="#327ac7"/>
      <stop offset=".797" stop-color="#327ac7"/>
      <stop offset=".801" stop-color="#3279c7"/>
      <stop offset=".805" stop-color="#3379c7"/>
      <stop offset=".809" stop-color="#3379c6"/>
      <stop offset=".813" stop-color="#3379c6"/>
      <stop offset=".816" stop-color="#3378c6"/>
      <stop offset=".82" stop-color="#3378c6"/>
      <stop offset=".824" stop-color="#3478c6"/>
      <stop offset=".828" stop-color="#3477c5"/>
      <stop offset=".832" stop-color="#3477c5"/>
      <stop offset=".836" stop-color="#3477c5"/>
      <stop offset=".84" stop-color="#3577c5"/>
      <stop offset=".844" stop-color="#3576c5"/>
      <stop offset=".848" stop-color="#3576c4"/>
      <stop offset=".852" stop-color="#3576c4"/>
      <stop offset=".855" stop-color="#3575c4"/>
      <stop offset=".859" stop-color="#3675c4"/>
      <stop offset=".863" stop-color="#3675c4"/>
      <stop offset=".867" stop-color="#3674c3"/>
      <stop offset=".871" stop-color="#3674c3"/>
      <stop offset=".875" stop-color="#3774c3"/>
      <stop offset=".879" stop-color="#3774c3"/>
      <stop offset=".883" stop-color="#3773c2"/>
      <stop offset=".887" stop-color="#3773c2"/>
      <stop offset=".891" stop-color="#3773c2"/>
      <stop offset=".895" stop-color="#3872c2"/>
      <stop offset=".898" stop-color="#3872c2"/>
      <stop offset=".902" stop-color="#3872c1"/>
      <stop offset=".906" stop-color="#3871c1"/>
      <stop offset=".938" stop-color="#3871c1"/>
      <stop offset="1" stop-color="#3871c1"/>
    </linearGradient>
    <linearGradient id="j" x1="-.09" x2="1" y1="0" y2="0" gradientTransform="rotate(45 -487.32 557.946) scale(230.02)" gradientUnits="userSpaceOnUse">
      <stop offset="0" stop-color="#3871c1"/>
      <stop offset=".063" stop-color="#3871c1"/>
      <stop offset=".078" stop-color="#3871c1"/>
      <stop offset=".086" stop-color="#3872c1"/>
      <stop offset=".09" stop-color="#3872c2"/>
      <stop offset=".094" stop-color="#3872c2"/>
      <stop offset=".098" stop-color="#3873c2"/>
      <stop offset=".102" stop-color="#3773c2"/>
      <stop offset=".105" stop-color="#3773c2"/>
      <stop offset=".109" stop-color="#3774c3"/>
      <stop offset=".113" stop-color="#3774c3"/>
      <stop offset=".117" stop-color="#3674c3"/>
      <stop offset=".121" stop-color="#3674c3"/>
      <stop offset=".125" stop-color="#3675c3"/>
      <stop offset=".129" stop-color="#3675c4"/>
      <stop offset=".133" stop-color="#3675c4"/>
      <stop offset=".137" stop-color="#3576c4"/>
      <stop offset=".141" stop-color="#3576c4"/>
      <stop offset=".145" stop-color="#3576c4"/>
      <stop offset=".148" stop-color="#3576c5"/>
      <stop offset=".152" stop-color="#3477c5"/>
      <stop offset=".156" stop-color="#3477c5"/>
      <stop offset=".16" stop-color="#3477c5"/>
      <stop offset=".164" stop-color="#3478c5"/>
      <stop offset=".168" stop-color="#3478c6"/>
      <stop offset=".172" stop-color="#3378c6"/>
      <stop offset=".176" stop-color="#3378c6"/>
      <stop offset=".18" stop-color="#3379c6"/>
      <stop offset=".184" stop-color="#3379c6"/>
      <stop offset=".188" stop-color="#3279c7"/>
      <stop offset=".191" stop-color="#327ac7"/>
      <stop offset=".195" stop-color="#327ac7"/>
      <stop offset=".199" stop-color="#327ac7"/>
      <stop offset=".203" stop-color="#327ac7"/>
      <stop offset=".207" stop-color="#317bc8"/>
      <stop offset=".211" stop-color="#317bc8"/>
      <stop offset=".215" stop-color="#317bc8"/>
      <stop offset=".219" stop-color="#317cc8"/>
      <stop offset=".223" stop-color="#307cc8"/>
      <stop offset=".227" stop-color="#307cc9"/>
      <stop offset=".23" stop-color="#307cc9"/>
      <stop offset=".234" stop-color="#307dc9"/>
      <stop offset=".238" stop-color="#2f7dc9"/>
      <stop offset=".242" stop-color="#2f7dc9"/>
      <stop offset=".246" stop-color="#2f7eca"/>
      <stop offset=".25" stop-color="#2f7eca"/>
      <stop offset=".254" stop-color="#2f7eca"/>
      <stop offset=".258" stop-color="#2e7eca"/>
      <stop offset=".262" stop-color="#2e7fca"/>
      <stop offset=".266" stop-color="#2e7fcb"/>
      <stop offset=".27" stop-color="#2e7fcb"/>
      <stop offset=".273" stop-color="#2d7fcb"/>
      <stop offset=".277" stop-color="#2d80cb"/>
      <stop offset=".281" stop-color="#2d80cb"/>
      <stop offset=".285" stop-color="#2d80cc"/>
      <stop offset=".289" stop-color="#2d81cc"/>
      <stop offset=".293" stop-color="#2c81cc"/>
      <stop offset=".297" stop-color="#2c81cc"/>
      <stop offset=".301" stop-color="#2c81cc"/>
      <stop offset=".305" stop-color="#2c82cd"/>
      <stop offset=".309" stop-color="#2b82cd"/>
      <stop offset=".313" stop-color="#2b82cd"/>
      <stop offset=".316" stop-color="#2b83cd"/>
      <stop offset=".32" stop-color="#2b83cd"/>
      <stop offset=".324" stop-color="#2a83ce"/>
      <stop offset=".328" stop-color="#2a83ce"/>
      <stop offset=".332" stop-color="#2a84ce"/>
      <stop offset=".336" stop-color="#2a84ce"/>
      <stop offset=".34" stop-color="#2a84ce"/>
      <stop offset=".344" stop-color="#2984cf"/>
      <stop offset=".348" stop-color="#2985cf"/>
      <stop offset=".352" stop-color="#2985cf"/>
      <stop offset=".355" stop-color="#2985cf"/>
      <stop offset=".359" stop-color="#2886cf"/>
      <stop offset=".363" stop-color="#2886d0"/>
      <stop offset=".367" stop-color="#2886d0"/>
      <stop offset=".371" stop-color="#2886d0"/>
      <stop offset=".375" stop-color="#2787d0"/>
      <stop offset=".379" stop-color="#2787d0"/>
      <stop offset=".383" stop-color="#2787d1"/>
      <stop offset=".387" stop-color="#2787d1"/>
      <stop offset=".391" stop-color="#2788d1"/>
      <stop offset=".395" stop-color="#2688d1"/>
      <stop offset=".398" stop-color="#2688d1"/>
      <stop offset=".402" stop-color="#2688d2"/>
      <stop offset=".406" stop-color="#2689d2"/>
      <stop offset=".41" stop-color="#2589d2"/>
      <stop offset=".414" stop-color="#2589d2"/>
      <stop offset=".418" stop-color="#258ad2"/>
      <stop offset=".422" stop-color="#258ad3"/>
      <stop offset=".426" stop-color="#248ad3"/>
      <stop offset=".43" stop-color="#248ad3"/>
      <stop offset=".434" stop-color="#248bd3"/>
      <stop offset=".438" stop-color="#248bd3"/>
      <stop offset=".441" stop-color="#238bd4"/>
      <stop offset=".445" stop-color="#238bd4"/>
      <stop offset=".449" stop-color="#238cd4"/>
      <stop offset=".453" stop-color="#238cd4"/>
      <stop offset=".457" stop-color="#238cd4"/>
      <stop offset=".461" stop-color="#228cd5"/>
      <stop offset=".465" stop-color="#228dd5"/>
      <stop offset=".469" stop-color="#228dd5"/>
      <stop offset=".473" stop-color="#228dd5"/>
      <stop offset=".477" stop-color="#218dd5"/>
      <stop offset=".48" stop-color="#218ed6"/>
      <stop offset=".484" stop-color="#218ed6"/>
      <stop offset=".488" stop-color="#218ed6"/>
      <stop offset=".492" stop-color="#208ed6"/>
      <stop offset=".496" stop-color="#208fd6"/>
      <stop offset=".5" stop-color="#208fd6"/>
      <stop offset=".504" stop-color="#208fd7"/>
      <stop offset=".508" stop-color="#1f90d7"/>
      <stop offset=".512" stop-color="#1f90d7"/>
      <stop offset=".516" stop-color="#1f90d7"/>
      <stop offset=".52" stop-color="#1f90d7"/>
      <stop offset=".523" stop-color="#1e91d8"/>
      <stop offset=".527" stop-color="#1e91d8"/>
      <stop offset=".531" stop-color="#1e91d8"/>
      <stop offset=".535" stop-color="#1e91d8"/>
      <stop offset=".539" stop-color="#1e92d8"/>
      <stop offset=".543" stop-color="#1d92d9"/>
      <stop offset=".547" stop-color="#1d92d9"/>
      <stop offset=".551" stop-color="#1d92d9"/>
      <stop offset=".555" stop-color="#1d93d9"/>
      <stop offset=".559" stop-color="#1c93d9"/>
      <stop offset=".563" stop-color="#1c93da"/>
      <stop offset=".566" stop-color="#1c93da"/>
      <stop offset=".57" stop-color="#1c94da"/>
      <stop offset=".574" stop-color="#1b94da"/>
      <stop offset=".578" stop-color="#1b94da"/>
      <stop offset=".582" stop-color="#1b94db"/>
      <stop offset=".586" stop-color="#1b95db"/>
      <stop offset=".59" stop-color="#1a95db"/>
      <stop offset=".594" stop-color="#1a95db"/>
      <stop offset=".598" stop-color="#1a95db"/>
      <stop offset=".602" stop-color="#1a96dc"/>
      <stop offset=".605" stop-color="#1996dc"/>
      <stop offset=".609" stop-color="#1996dc"/>
      <stop offset=".613" stop-color="#1996dc"/>
      <stop offset=".617" stop-color="#1997dc"/>
      <stop offset=".621" stop-color="#1897dd"/>
      <stop offset=".625" stop-color="#1897dd"/>
      <stop offset=".629" stop-color="#1897dd"/>
      <stop offset=".633" stop-color="#1898dd"/>
      <stop offset=".637" stop-color="#1798dd"/>
      <stop offset=".641" stop-color="#1798dd"/>
      <stop offset=".645" stop-color="#1798de"/>
      <stop offset=".648" stop-color="#1799de"/>
      <stop offset=".652" stop-color="#1799de"/>
      <stop offset=".656" stop-color="#1699de"/>
      <stop offset=".66" stop-color="#1699de"/>
      <stop offset=".664" stop-color="#1699df"/>
      <stop offset=".668" stop-color="#169adf"/>
      <stop offset=".672" stop-color="#159adf"/>
      <stop offset=".676" stop-color="#159adf"/>
      <stop offset=".68" stop-color="#159adf"/>
      <stop offset=".684" stop-color="#159be0"/>
      <stop offset=".688" stop-color="#149be0"/>
      <stop offset=".691" stop-color="#149be0"/>
      <stop offset=".695" stop-color="#149be0"/>
      <stop offset=".699" stop-color="#149ce0"/>
      <stop offset=".703" stop-color="#139ce1"/>
      <stop offset=".707" stop-color="#139ce1"/>
      <stop offset=".711" stop-color="#139ce1"/>
      <stop offset=".715" stop-color="#139de1"/>
      <stop offset=".719" stop-color="#129de1"/>
      <stop offset=".723" stop-color="#129de2"/>
      <stop offset=".727" stop-color="#129de2"/>
      <stop offset=".73" stop-color="#129ee2"/>
      <stop offset=".734" stop-color="#119ee2"/>
      <stop offset=".738" stop-color="#119ee2"/>
      <stop offset=".742" stop-color="#119ee2"/>
      <stop offset=".746" stop-color="#119ee3"/>
      <stop offset=".75" stop-color="#109fe3"/>
      <stop offset=".754" stop-color="#109fe3"/>
      <stop offset=".758" stop-color="#109fe3"/>
      <stop offset=".762" stop-color="#109fe3"/>
      <stop offset=".766" stop-color="#0fa0e4"/>
      <stop offset=".77" stop-color="#0fa0e4"/>
      <stop offset=".773" stop-color="#0fa0e4"/>
      <stop offset=".777" stop-color="#0fa0e4"/>
      <stop offset=".781" stop-color="#0ea1e4"/>
      <stop offset=".785" stop-color="#0ea1e5"/>
      <stop offset=".789" stop-color="#0ea1e5"/>
      <stop offset=".793" stop-color="#0ea1e5"/>
      <stop offset=".797" stop-color="#0da2e5"/>
      <stop offset=".801" stop-color="#0da2e5"/>
      <stop offset=".805" stop-color="#0da2e6"/>
      <stop offset=".809" stop-color="#0da2e6"/>
      <stop offset=".813" stop-color="#0ca2e6"/>
      <stop offset=".816" stop-color="#0ca3e6"/>
      <stop offset=".82" stop-color="#0ca3e6"/>
      <stop offset=".824" stop-color="#0ca3e6"/>
      <stop offset=".828" stop-color="#0ba3e7"/>
      <stop offset=".832" stop-color="#0ba4e7"/>
      <stop offset=".836" stop-color="#0ba4e7"/>
      <stop offset=".84" stop-color="#0ba4e7"/>
      <stop offset=".844" stop-color="#0aa4e7"/>
      <stop offset=".848" stop-color="#0aa4e8"/>
      <stop offset=".852" stop-color="#0aa5e8"/>
      <stop offset=".855" stop-color="#0aa5e8"/>
      <stop offset=".859" stop-color="#09a5e8"/>
      <stop offset=".863" stop-color="#09a5e8"/>
      <stop offset=".867" stop-color="#09a6e9"/>
      <stop offset=".871" stop-color="#09a6e9"/>
      <stop offset=".875" stop-color="#08a6e9"/>
      <stop offset=".879" stop-color="#08a6e9"/>
      <stop offset=".883" stop-color="#08a6e9"/>
      <stop offset=".887" stop-color="#07a7ea"/>
      <stop offset=".891" stop-color="#07a7ea"/>
      <stop offset=".895" stop-color="#07a7ea"/>
      <stop offset=".898" stop-color="#07a7ea"/>
      <stop offset=".902" stop-color="#06a8ea"/>
      <stop offset=".906" stop-color="#06a8ea"/>
      <stop offset=".91" stop-color="#06a8eb"/>
      <stop offset=".914" stop-color="#06a8eb"/>
      <stop offset=".918" stop-color="#05a8eb"/>
      <stop offset=".922" stop-color="#05a9eb"/>
      <stop offset=".926" stop-color="#05a9eb"/>
      <stop offset=".93" stop-color="#05a9ec"/>
      <stop offset=".934" stop-color="#04a9ec"/>
      <stop offset=".938" stop-color="#04aaec"/>
      <stop offset=".941" stop-color="#04aaec"/>
      <stop offset=".945" stop-color="#04aaec"/>
      <stop offset=".949" stop-color="#03aaed"/>
      <stop offset=".953" stop-color="#03aaed"/>
      <stop offset=".957" stop-color="#03abed"/>
      <stop offset=".961" stop-color="#03abed"/>
      <stop offset=".965" stop-color="#02abed"/>
      <stop offset=".969" stop-color="#02abee"/>
      <stop offset=".973" stop-color="#02acee"/>
      <stop offset=".977" stop-color="#02acee"/>
      <stop offset=".98" stop-color="#01acee"/>
      <stop offset=".984" stop-color="#01acee"/>
      <stop offset=".988" stop-color="#01acee"/>
      <stop offset=".992" stop-color="#01adef"/>
      <stop offset=".996" stop-color="#00adef"/>
      <stop offset="1" stop-color="#00adef"/>
    </linearGradient>
    <linearGradient id="m" x1="-.363" x2="1.672" y1="0" y2="0" gradientTransform="rotate(45 -519.616 546.467) scale(81.368)" gradientUnits="userSpaceOnUse">
      <stop offset="0" stop-color="#3871c1"/>
      <stop offset=".125" stop-color="#3871c1"/>
      <stop offset=".156" stop-color="#3871c1"/>
      <stop offset=".172" stop-color="#3871c1"/>
      <stop offset=".18" stop-color="#3872c1"/>
      <stop offset=".184" stop-color="#3872c2"/>
      <stop offset=".188" stop-color="#3773c2"/>
      <stop offset=".191" stop-color="#3773c2"/>
      <stop offset=".195" stop-color="#3774c3"/>
      <stop offset=".199" stop-color="#3674c3"/>
      <stop offset=".203" stop-color="#3675c4"/>
      <stop offset=".207" stop-color="#3575c4"/>
      <stop offset=".211" stop-color="#3576c4"/>
      <stop offset=".215" stop-color="#3577c5"/>
      <stop offset=".219" stop-color="#3477c5"/>
      <stop offset=".223" stop-color="#3478c6"/>
      <stop offset=".227" stop-color="#3378c6"/>
      <stop offset=".23" stop-color="#3379c6"/>
      <stop offset=".234" stop-color="#3279c7"/>
      <stop offset=".238" stop-color="#327ac7"/>
      <stop offset=".242" stop-color="#327ac7"/>
      <stop offset=".246" stop-color="#317bc8"/>
      <stop offset=".25" stop-color="#317bc8"/>
      <stop offset=".254" stop-color="#307cc8"/>
      <stop offset=".258" stop-color="#307cc9"/>
      <stop offset=".262" stop-color="#307dc9"/>
      <stop offset=".266" stop-color="#2f7dca"/>
      <stop offset=".27" stop-color="#2f7eca"/>
      <stop offset=".273" stop-color="#2e7fca"/>
      <stop offset=".277" stop-color="#2e7fcb"/>
      <stop offset=".281" stop-color="#2d80cb"/>
      <stop offset=".285" stop-color="#2d80cb"/>
      <stop offset=".289" stop-color="#2d81cc"/>
      <stop offset=".293" stop-color="#2c81cc"/>
      <stop offset=".297" stop-color="#2c82cd"/>
      <stop offset=".301" stop-color="#2b82cd"/>
      <stop offset=".305" stop-color="#2b83cd"/>
      <stop offset=".309" stop-color="#2a83ce"/>
      <stop offset=".313" stop-color="#2a84ce"/>
      <stop offset=".316" stop-color="#2a84ce"/>
      <stop offset=".32" stop-color="#2985cf"/>
      <stop offset=".324" stop-color="#2985cf"/>
      <stop offset=".328" stop-color="#2886d0"/>
      <stop offset=".332" stop-color="#2886d0"/>
      <stop offset=".336" stop-color="#2787d0"/>
      <stop offset=".34" stop-color="#2787d1"/>
      <stop offset=".344" stop-color="#2688d1"/>
      <stop offset=".348" stop-color="#2688d1"/>
      <stop offset=".352" stop-color="#2689d2"/>
      <stop offset=".355" stop-color="#2589d2"/>
      <stop offset=".359" stop-color="#258ad2"/>
      <stop offset=".363" stop-color="#248ad3"/>
      <stop offset=".367" stop-color="#248bd3"/>
      <stop offset=".371" stop-color="#238bd4"/>
      <stop offset=".375" stop-color="#238cd4"/>
      <stop offset=".379" stop-color="#238cd4"/>
      <stop offset=".383" stop-color="#228dd5"/>
      <stop offset=".387" stop-color="#228dd5"/>
      <stop offset=".391" stop-color="#218ed5"/>
      <stop offset=".395" stop-color="#218ed6"/>
      <stop offset=".398" stop-color="#208fd6"/>
      <stop offset=".402" stop-color="#208fd7"/>
      <stop offset=".406" stop-color="#1f90d7"/>
      <stop offset=".41" stop-color="#1f90d7"/>
      <stop offset=".414" stop-color="#1f90d8"/>
      <stop offset=".418" stop-color="#1e91d8"/>
      <stop offset=".422" stop-color="#1e91d8"/>
      <stop offset=".426" stop-color="#1d92d9"/>
      <stop offset=".43" stop-color="#1d92d9"/>
      <stop offset=".434" stop-color="#1c93d9"/>
      <stop offset=".438" stop-color="#1c93da"/>
      <stop offset=".441" stop-color="#1b94da"/>
      <stop offset=".445" stop-color="#1b94db"/>
      <stop offset=".449" stop-color="#1b95db"/>
      <stop offset=".453" stop-color="#1a95db"/>
      <stop offset=".457" stop-color="#1a96dc"/>
      <stop offset=".461" stop-color="#1996dc"/>
      <stop offset=".465" stop-color="#1997dc"/>
      <stop offset=".469" stop-color="#1897dd"/>
      <stop offset=".473" stop-color="#1897dd"/>
      <stop offset=".477" stop-color="#1798dd"/>
      <stop offset=".48" stop-color="#1798de"/>
      <stop offset=".484" stop-color="#1699de"/>
      <stop offset=".488" stop-color="#1699de"/>
      <stop offset=".492" stop-color="#159adf"/>
      <stop offset=".496" stop-color="#159adf"/>
      <stop offset=".5" stop-color="#159be0"/>
      <stop offset=".504" stop-color="#149be0"/>
      <stop offset=".508" stop-color="#149ce0"/>
      <stop offset=".512" stop-color="#139ce1"/>
      <stop offset=".516" stop-color="#139ce1"/>
      <stop offset=".52" stop-color="#129de1"/>
      <stop offset=".523" stop-color="#129de2"/>
      <stop offset=".527" stop-color="#119ee2"/>
      <stop offset=".531" stop-color="#119ee2"/>
      <stop offset=".535" stop-color="#109fe3"/>
      <stop offset=".539" stop-color="#109fe3"/>
      <stop offset=".543" stop-color="#0fa0e4"/>
      <stop offset=".551" stop-color="#0fa0e4"/>
      <stop offset=".555" stop-color="#0ea1e5"/>
      <stop offset=".559" stop-color="#0ea1e5"/>
      <stop offset=".563" stop-color="#0da2e5"/>
      <stop offset=".566" stop-color="#0da2e6"/>
      <stop offset=".57" stop-color="#0ca3e6"/>
      <stop offset=".574" stop-color="#0ca3e6"/>
      <stop offset=".578" stop-color="#0ba3e7"/>
      <stop offset=".582" stop-color="#0ba4e7"/>
      <stop offset=".586" stop-color="#0aa4e7"/>
      <stop offset=".59" stop-color="#0aa5e8"/>
      <stop offset=".594" stop-color="#09a5e8"/>
      <stop offset=".598" stop-color="#09a5e9"/>
      <stop offset=".602" stop-color="#08a6e9"/>
      <stop offset=".605" stop-color="#08a6e9"/>
      <stop offset=".609" stop-color="#07a7ea"/>
      <stop offset=".613" stop-color="#07a7ea"/>
      <stop offset=".617" stop-color="#06a8ea"/>
      <stop offset=".621" stop-color="#06a8eb"/>
      <stop offset=".625" stop-color="#06a8eb"/>
      <stop offset=".629" stop-color="#05a9eb"/>
      <stop offset=".633" stop-color="#05a9ec"/>
      <stop offset=".637" stop-color="#04aaec"/>
      <stop offset=".641" stop-color="#04aaec"/>
      <stop offset=".645" stop-color="#03aaed"/>
      <stop offset=".648" stop-color="#03abed"/>
      <stop offset=".652" stop-color="#02abed"/>
      <stop offset=".656" stop-color="#02acee"/>
      <stop offset=".66" stop-color="#01acee"/>
      <stop offset=".664" stop-color="#01acef"/>
      <stop offset=".668" stop-color="#00adef"/>
      <stop offset="1" stop-color="#00adef"/>
    </linearGradient>
    <symbol id="n" stroke-linejoin="round" stroke-miterlimit="4" stroke-opacity=".989" stroke-width="0" overflow="visible" paint-order="stroke fill markers">
      <path d="M11.672-189.734H163.39l-6.282 48.937-13.421-2.016-5.282-33H67.391v73.547h43.796l6.516-18.453 13.688-2.015L127.375-63l-13.438 2.266-4.765-27.485H67.39l-.25 69.516 36.265 5.906L101.391 0H11.17l1.25-11.297 25.47-7.156v-153.344l-27.72-6.39zm0 0"/>
    </symbol>
    <symbol id="o" stroke-linejoin="round" stroke-miterlimit="4" stroke-opacity=".989" stroke-width="0" overflow="visible" paint-order="stroke fill markers">
      <path d="M79.938-65.25c-15.813 3.094-27.047 7.34-33.704 12.734-6.648 5.399-9.968 11.985-9.968 19.766 0 4.344 1.547 8.383 4.64 12.11 3.094 3.718 7.274 5.578 12.547 5.578 4.77 0 9.625-1.422 14.563-4.266 4.937-2.844 8.91-5.977 11.921-9.406zm26.609 68.016c-8.031 0-13.977-2.07-17.828-6.204-3.844-4.144-5.766-8.894-5.766-14.25v-2.265h-1.766c-1.167 2.344-2.777 4.73-4.828 7.156-2.054 2.43-4.73 4.961-8.03 7.594-3.306 2.637-7.466 4.789-12.485 6.453C50.82 2.926 45.383 3.766 39.53 3.766c-8.449 0-15.562-2.657-21.343-7.97C12.413-9.515 9.53-16.686 9.53-25.718c0-5.781 1.36-11.304 4.078-16.578 2.72-5.27 6.817-10.14 12.297-14.61 5.49-4.476 12.853-8.241 22.095-11.296 9.238-3.05 19.883-4.992 31.938-5.828v-8.422c0-5.52-.422-10.555-1.266-15.11-.836-4.562-2.234-8.804-4.203-12.734-1.961-3.937-4.762-6.992-8.406-9.172-3.637-2.176-8.008-3.265-13.11-3.265-3.18 0-5.793.632-7.844 1.89-2.054 1.25-3.601 3.235-4.64 5.953a48.684 48.684 0 0 0-2.39 8.485c-.544 2.93-1.063 6.687-1.563 11.281-.168 2.18-.336 3.813-.5 4.906-2.094 0-3.899-.062-5.407-.187-1.5-.133-3.32-.492-5.453-1.078-2.136-.582-3.898-1.395-5.281-2.438-1.375-1.05-2.563-2.617-3.563-4.703-1-2.094-1.5-4.563-1.5-7.406 0-5.27 2.883-10.414 8.657-15.438 5.77-5.02 12.691-8.953 20.765-11.797 8.07-2.843 15.664-4.265 22.782-4.265 13.468 0 23.129 3.765 28.984 11.297 5.852 7.523 8.781 19.437 8.781 35.75v55.468c0 7.118 1.067 12.012 3.203 14.688 2.133 2.68 6.711 4.601 13.735 5.765l7.531 1.266L127.5-.25c-1.68.25-3.773.645-6.281 1.188-2.512.539-4.918.976-7.219 1.312-2.293.344-4.777.516-7.453.516zm0 0"/>
    </symbol>
    <symbol id="p" stroke-miterlimit="4" stroke-opacity="1" stroke-width="0" overflow="visible" paint-order="stroke fill markers">
      <path d="M20.078-7.531v-161.5l-23.219-8.156 2.016-11.547L41.156-192l3.766 3.516v58.984l-2.25 15.813h1.75c13.8-15.563 28.36-23.344 43.672-23.344 14.719 0 26.57 6.008 35.562 18.015 9 12 13.5 27.664 13.5 46.985 0 11.71-2.074 22.418-6.219 32.125-4.136 9.71-9.699 17.68-16.687 23.906-6.98 6.23-14.969 11.043-23.969 14.438C81.29 1.82 71.816 3.516 61.86 3.516c-16.23 0-30.156-3.68-41.78-11.047zm89.844-54.719c0-4.926-.274-9.754-.813-14.484-.543-4.727-1.57-9.602-3.078-14.625-1.5-5.02-3.422-9.391-5.765-13.11-2.344-3.719-5.465-6.77-9.36-9.156-3.886-2.383-8.297-3.578-13.234-3.578-12.625 0-23.543 4.89-32.75 14.672v78.812c3.176 3.18 7.691 5.711 13.547 7.594 5.863 1.887 12.097 2.828 18.703 2.828 9.375 0 17.176-4.14 23.406-12.422 6.227-8.289 9.344-20.468 9.344-36.531zm0 0"/>
    </symbol>
    <symbol id="q" stroke-miterlimit="4" stroke-opacity="1" stroke-width="0" overflow="visible" paint-order="stroke fill markers">
      <path d="M99.766-102.781c-5.856-5.008-11.461-7.516-16.813-7.516-4.773 0-9.668 2.93-14.687 8.781-5.024 5.856-8.282 14.012-9.782 24.47v58.593l35.25 5.156L92.234 0H8.031l1.75-11.297L33-17.437v-93.626l-24.719-7.406L10.297-130l43.656-5.781 3.016 3.515L54.469-97h3c3.851-13.219 9.082-23.398 15.687-30.547 6.614-7.156 13.305-10.734 20.078-10.734 5.438 0 9.848 1.715 13.235 5.14 3.394 3.43 5.094 7.485 5.094 12.172 0 6.688-3.934 12.75-11.797 18.188zm0 0"/>
    </symbol>
    <symbol id="r" stroke-miterlimit="4" stroke-opacity=".996" stroke-width="0" overflow="visible" paint-order="stroke fill markers">
      <path d="m9.281-12.047 23.219-5.64v-93.876l-23.219-8.406 2.016-11.547 42.922-3.515 3.75 3.765v113.578l24.484 5.391L80.687 0H7.531Zm34.516-187.36c5.101 0 9.492 1.7 13.172 5.095 3.687 3.386 5.531 7.507 5.531 12.359 0 5.105-1.867 9.496-5.594 13.172-3.718 3.68-8.09 5.515-13.11 5.515-5.023 0-9.292-1.859-12.812-5.578-3.511-3.719-5.265-8.172-5.265-13.36 0-4.85 1.797-8.929 5.39-12.234 3.602-3.312 7.832-4.968 12.688-4.968zm0 0"/>
    </symbol>
    <symbol id="s" stroke-miterlimit="4" stroke-opacity="1" stroke-width="0" overflow="visible" paint-order="stroke fill markers">
      <path d="M83.203-13.672c4.676 0 9.086-.539 13.234-1.625 4.145-1.094 7.32-2.18 9.532-3.265 2.219-1.094 4.914-2.645 8.094-4.657l3.765 8.907c-4.18 5.105-10.726 9.523-19.64 13.25-8.907 3.718-18.086 5.578-27.532 5.578-11.886 0-22.476-3.137-31.765-9.407-9.282-6.28-16.352-14.562-21.203-24.843-4.844-10.29-7.266-21.547-7.266-33.766 0-10.957 1.816-21.14 5.453-30.547 3.633-9.414 8.484-17.219 14.547-23.406 6.07-6.195 12.976-11.05 20.719-14.563 7.738-3.507 15.75-5.265 24.03-5.265 12.04 0 21.177 2.261 27.407 6.781 6.238 4.512 9.36 10.031 9.36 16.563 0 4.593-1.657 8.273-4.97 11.03-3.304 2.762-8.09 4.4-14.359 4.907-1.336-3.188-2.632-5.988-3.89-8.406-1.25-2.426-2.903-5.02-4.953-7.781-2.055-2.758-4.418-4.915-7.094-6.47-2.68-1.55-5.606-2.327-8.781-2.327-9.118 0-16.399 4.168-21.844 12.5-5.438 8.324-8.156 19.386-8.156 33.187 0 5.274.539 10.73 1.625 16.375 1.093 5.649 2.832 11.313 5.218 17 2.383 5.688 5.29 10.75 8.72 15.188 3.437 4.43 7.722 8.047 12.858 10.859 5.145 2.805 10.774 4.203 16.891 4.203zm0 0"/>
    </symbol>
  </defs>
  <g clip-path="url(#c)" transform="matrix(2.42 0 0 2.42 -467.18 -1029.065)">
    <path fill="url(#d)" d="M405.738 374.555 289 491.293l116.738 116.738 116.739-116.738Zm0 0"/>
  </g>
  <g clip-path="url(#e)" transform="matrix(2.42 0 0 2.42 -467.18 -1029.276)">
    <g clip-path="url(#f)">
      <path fill="url(#g)" d="M338.523 310.398 159.09 489.832l179.433 179.434 179.434-179.434Zm0 0"/>
    </g>
  </g>
  <g clip-path="url(#h)" transform="matrix(2.42 0 0 2.42 -467.18 -1029.065)">
    <g clip-path="url(#i)">
      <path fill="url(#j)" d="M333.59 397.012 156.344 574.258l177.246 177.25 177.25-177.25Zm0 0" clip-path="none"/>
    </g>
  </g>
  <g clip-path="url(#k)" transform="matrix(2.42 0 0 2.42 -466.97 -1029.66)">
    <g clip-path="url(#l)">
      <path fill="url(#m)" d="M266.309 453.582 149.19 570.703l117.12 117.121 117.12-117.12Zm0 0"/>
    </g>
  </g>
  <use xlink:href="#n" width="100%" height="100%" x="491.999" y="633.204" fill="#21211e" stroke="#fbffff" stroke-linecap="square" stroke-linejoin="round" stroke-width="0" paint-order="stroke fill markers" transform="matrix(.987 0 0 .995 228.224 -219.556)"/>
  <use xlink:href="#o" width="100%" height="100%" x="644.17" y="633.204" fill="#21211e" stroke="#fbffff" stroke-linecap="square" stroke-linejoin="round" stroke-width="0" transform="matrix(.987 0 0 .995 228.224 -219.556)"/>
  <use xlink:href="#p" width="100%" height="100%" x="767.088" y="633.204" fill="#21211e" stroke="#fbffff" stroke-linecap="square" stroke-linejoin="round" stroke-width="0" transform="matrix(.987 0 0 .995 228.224 -219.556)"/>
  <use xlink:href="#q" width="100%" height="100%" x="907.455" y="633.204" fill="#21211e" stroke="#fbffff" stroke-linecap="square" stroke-linejoin="round" stroke-width="0" transform="matrix(.987 0 0 .995 234.57 -219.556)"/>
  <use xlink:href="#r" width="100%" height="100%" x="1016.259" y="633.204" fill="#21211e" stroke="#fbffff" stroke-linecap="square" stroke-linejoin="round" stroke-width="0" transform="matrix(.987 0 0 .995 251.493 -219.556)"/>
  <use xlink:href="#s" width="100%" height="100%" x="1094.782" y="633.204" fill="#21211e" stroke="#fbffff" stroke-linecap="round" stroke-linejoin="round" stroke-width="0" paint-order="fill markers stroke" transform="matrix(.987 0 0 .995 247.263 -219.556)"/>
  <path fill="#2a83ce" stroke="#fbffff" stroke-linejoin="round" stroke-width="0" d="m1455.57 397.768 16.218-9.892c3.129 5.59 5.975 10.321 12.802 10.321 6.544 0 10.67-2.58 10.67-12.615v-68.248h19.914v68.532c0 20.79-12.09 30.252-29.73 30.252-15.932 0-25.179-8.316-29.873-18.352m70.419-2.149 16.216-9.463c4.268 7.026 9.816 12.188 19.63 12.188 8.253 0 13.514-4.158 13.514-9.894 0-6.882-5.405-9.32-14.51-13.333l-4.977-2.152c-14.368-6.164-23.899-13.906-23.899-30.25 0-15.055 11.38-26.526 29.162-26.526 12.66 0 21.764 4.445 28.307 16.059l-15.506 10.036c-3.414-6.165-7.111-8.602-12.801-8.602-5.832 0-9.531 3.728-9.531 8.602 0 6.022 3.699 8.46 12.233 12.188l4.978 2.15c16.928 7.312 26.46 14.767 26.46 31.541 0 18.067-14.297 27.959-33.002 27.959-18.706 0-30.442-8.889-36.273-20.503z" paint-order="stroke fill markers"/>
</svg>